<mxfile host="" modified="2020-05-24T15:21:41.060Z" agent="5.0 (X11; Linux x86_64) AppleWebKit/537.36 (KHTML, like Gecko) Code/1.45.0 Chrome/78.0.3904.130 Electron/7.2.4 Safari/537.36" version="13.1.3" etag="lrwgP8mNOWNbAz78NI_h" pages="2">
            <diagram id="diagramid" name="Diagram">
              <mxGraphModel><root><mxCell id="0"/><mxCell id="1" parent="0"/><mxCell id="2" value="NextJSLambdaEdgeExampleSiteSSRAppStackPublicAssets23D0591A" style="outlineConnect=0;fontColor=#B3B3B3;gradientColor=#60A337;gradientDirection=north;fillColor=#277116;strokeColor=#ffffff;dashed=0;verticalLabelPosition=bottom;verticalAlign=top;align=center;html=1;fontSize=12;fontStyle=0;aspect=fixed;shape=mxgraph.aws4.resourceIcon;resIcon=mxgraph.aws4.s3;" vertex="1" parent="1"><mxGeometry x="500" y="1450" width="50" height="50" as="geometry"/></mxCell><mxCell id="3" value="NextJSLambdaEdgeExampleSiteSSRAppStackPublicAssetsPolicy173F03F1" style="outlineConnect=0;fontColor=#B3B3B3;gradientColor=#60A337;gradientDirection=north;fillColor=#277116;strokeColor=#ffffff;dashed=0;verticalLabelPosition=bottom;verticalAlign=top;align=center;html=1;fontSize=12;fontStyle=0;aspect=fixed;shape=mxgraph.aws4.resourceIcon;resIcon=mxgraph.aws4.s3;" vertex="1" parent="1"><mxGeometry x="250" y="400" width="50" height="50" as="geometry"/></mxCell><mxCell id="4" value="NextJSLambdaEdgeExampleSiteSSRAppStackPublicAssetsAutoDeleteObjectsCustomResource75CDB95A" style="outlineConnect=0;fontColor=#B3B3B3;gradientColor=#aaaaaa;gradientDirection=north;fillColor=#aaaaaa;strokeColor=#ffffff;dashed=0;verticalLabelPosition=bottom;verticalAlign=top;align=center;html=1;fontSize=12;fontStyle=0;aspect=fixed;shape=mxgraph.aws4.resourceIcon;resIcon=mxgraph.aws4.s3autodeleteobjects;" vertex="1" parent="1"><mxGeometry y="675" width="50" height="50" as="geometry"/></mxCell><mxCell id="5" value="NextJSLambdaEdgeExampleSiteSSRAppStackNextEdgeLambdaRole1A1138A5" style="outlineConnect=0;fontColor=#B3B3B3;gradientColor=#F54749;gradientDirection=north;fillColor=#C7131F;strokeColor=#ffffff;dashed=0;verticalLabelPosition=bottom;verticalAlign=top;align=center;html=1;fontSize=12;fontStyle=0;aspect=fixed;shape=mxgraph.aws4.resourceIcon;resIcon=mxgraph.aws4.role;" vertex="1" parent="1"><mxGeometry x="1000" y="893.75" width="50" height="50" as="geometry"/></mxCell><mxCell id="6" value="NextJSLambdaEdgeExampleSiteSSRAppStackNextLambdaBCB10193" style="outlineConnect=0;fontColor=#B3B3B3;gradientColor=#F78E04;gradientDirection=north;fillColor=#D05C17;strokeColor=#ffffff;dashed=0;verticalLabelPosition=bottom;verticalAlign=top;align=center;html=1;fontSize=12;fontStyle=0;aspect=fixed;shape=mxgraph.aws4.resourceIcon;resIcon=mxgraph.aws4.lambda;" vertex="1" parent="1"><mxGeometry x="750" y="509.375" width="50" height="50" as="geometry"/></mxCell><mxCell id="7" value="NextJSLambdaEdgeExampleSiteSSRAppStackNextLambdaLogRetention7A9B8A25" style="outlineConnect=0;fontColor=#B3B3B3;gradientColor=#aaaaaa;gradientDirection=north;fillColor=#aaaaaa;strokeColor=#ffffff;dashed=0;verticalLabelPosition=bottom;verticalAlign=top;align=center;html=1;fontSize=12;fontStyle=0;aspect=fixed;shape=mxgraph.aws4.resourceIcon;resIcon=mxgraph.aws4.logretention;" vertex="1" parent="1"><mxGeometry y="575" width="50" height="50" as="geometry"/></mxCell><mxCell id="8" value="NextJSLambdaEdgeExampleSiteSSRAppStackNextLambdaCurrentVersion29E6A30B9ed1d395273429d843617a47ea17240e" style="outlineConnect=0;fontColor=#B3B3B3;gradientColor=#F78E04;gradientDirection=north;fillColor=#D05C17;strokeColor=#ffffff;dashed=0;verticalLabelPosition=bottom;verticalAlign=top;align=center;html=1;fontSize=12;fontStyle=0;aspect=fixed;shape=mxgraph.aws4.resourceIcon;resIcon=mxgraph.aws4.lambda;" vertex="1" parent="1"><mxGeometry x="500" y="700" width="50" height="50" as="geometry"/></mxCell><mxCell id="9" value="NextJSLambdaEdgeExampleSiteSSRAppStackNextLambdaCurrentVersionAliasliveCA41A06C" style="outlineConnect=0;fontColor=#B3B3B3;gradientColor=#F78E04;gradientDirection=north;fillColor=#D05C17;strokeColor=#ffffff;dashed=0;verticalLabelPosition=bottom;verticalAlign=top;align=center;html=1;fontSize=12;fontStyle=0;aspect=fixed;shape=mxgraph.aws4.resourceIcon;resIcon=mxgraph.aws4.lambda;" vertex="1" parent="1"><mxGeometry x="250" y="500" width="50" height="50" as="geometry"/></mxCell><mxCell id="10" value="NextJSLambdaEdgeExampleSiteSSRAppStackNextImageLambda27933087" style="outlineConnect=0;fontColor=#B3B3B3;gradientColor=#F78E04;gradientDirection=north;fillColor=#D05C17;strokeColor=#ffffff;dashed=0;verticalLabelPosition=bottom;verticalAlign=top;align=center;html=1;fontSize=12;fontStyle=0;aspect=fixed;shape=mxgraph.aws4.resourceIcon;resIcon=mxgraph.aws4.lambda;" vertex="1" parent="1"><mxGeometry x="750" y="1208.75" width="50" height="50" as="geometry"/></mxCell><mxCell id="11" value="NextJSLambdaEdgeExampleSiteSSRAppStackNextImageLambdaLogRetention37DF2D80" style="outlineConnect=0;fontColor=#B3B3B3;gradientColor=#aaaaaa;gradientDirection=north;fillColor=#aaaaaa;strokeColor=#ffffff;dashed=0;verticalLabelPosition=bottom;verticalAlign=top;align=center;html=1;fontSize=12;fontStyle=0;aspect=fixed;shape=mxgraph.aws4.resourceIcon;resIcon=mxgraph.aws4.logretention;" vertex="1" parent="1"><mxGeometry y="775" width="50" height="50" as="geometry"/></mxCell><mxCell id="12" value="NextJSLambdaEdgeExampleSiteSSRAppStackNextImageLambdaCurrentVersion415176EFd52fd4ee4d5cb43535123616f6eb9732" style="outlineConnect=0;fontColor=#B3B3B3;gradientColor=#F78E04;gradientDirection=north;fillColor=#D05C17;strokeColor=#ffffff;dashed=0;verticalLabelPosition=bottom;verticalAlign=top;align=center;html=1;fontSize=12;fontStyle=0;aspect=fixed;shape=mxgraph.aws4.resourceIcon;resIcon=mxgraph.aws4.lambda;" vertex="1" parent="1"><mxGeometry x="500" y="1250" width="50" height="50" as="geometry"/></mxCell><mxCell id="13" value="NextJSLambdaEdgeExampleSiteSSRAppStackNextImageLambdaCurrentVersionEventInvokeConfig4F02B6B8" style="outlineConnect=0;fontColor=#B3B3B3;gradientColor=#F78E04;gradientDirection=north;fillColor=#D05C17;strokeColor=#ffffff;dashed=0;verticalLabelPosition=bottom;verticalAlign=top;align=center;html=1;fontSize=12;fontStyle=0;aspect=fixed;shape=mxgraph.aws4.resourceIcon;resIcon=mxgraph.aws4.lambda;" vertex="1" parent="1"><mxGeometry x="250" y="700" width="50" height="50" as="geometry"/></mxCell><mxCell id="14" value="NextJSLambdaEdgeExampleSiteSSRAppStackNextImageLambdaCurrentVersionAliaslive41F855CE" style="outlineConnect=0;fontColor=#B3B3B3;gradientColor=#F78E04;gradientDirection=north;fillColor=#D05C17;strokeColor=#ffffff;dashed=0;verticalLabelPosition=bottom;verticalAlign=top;align=center;html=1;fontSize=12;fontStyle=0;aspect=fixed;shape=mxgraph.aws4.resourceIcon;resIcon=mxgraph.aws4.lambda;" vertex="1" parent="1"><mxGeometry x="250" y="800" width="50" height="50" as="geometry"/></mxCell><mxCell id="15" value="NextJSLambdaEdgeExampleSiteSSRAppStackNextStaticsCache69A2F53D" style="outlineConnect=0;fontColor=#B3B3B3;gradientColor=#945DF2;gradientDirection=north;fillColor=#5A30B5;strokeColor=#ffffff;dashed=0;verticalLabelPosition=bottom;verticalAlign=top;align=center;html=1;fontSize=12;fontStyle=0;aspect=fixed;shape=mxgraph.aws4.resourceIcon;resIcon=mxgraph.aws4.cloudfront;" vertex="1" parent="1"><mxGeometry x="500" y="1100" width="50" height="50" as="geometry"/></mxCell><mxCell id="16" value="NextJSLambdaEdgeExampleSiteSSRAppStackNextImageCacheF3D4A686" style="outlineConnect=0;fontColor=#B3B3B3;gradientColor=#945DF2;gradientDirection=north;fillColor=#5A30B5;strokeColor=#ffffff;dashed=0;verticalLabelPosition=bottom;verticalAlign=top;align=center;html=1;fontSize=12;fontStyle=0;aspect=fixed;shape=mxgraph.aws4.resourceIcon;resIcon=mxgraph.aws4.cloudfront;" vertex="1" parent="1"><mxGeometry x="500" y="800" width="50" height="50" as="geometry"/></mxCell><mxCell id="17" value="NextJSLambdaEdgeExampleSiteSSRAppStackNextLambdaCache5203604E" style="outlineConnect=0;fontColor=#B3B3B3;gradientColor=#945DF2;gradientDirection=north;fillColor=#5A30B5;strokeColor=#ffffff;dashed=0;verticalLabelPosition=bottom;verticalAlign=top;align=center;html=1;fontSize=12;fontStyle=0;aspect=fixed;shape=mxgraph.aws4.resourceIcon;resIcon=mxgraph.aws4.cloudfront;" vertex="1" parent="1"><mxGeometry x="500" y="1000" width="50" height="50" as="geometry"/></mxCell><mxCell id="18" value="NextJSLambdaEdgeExampleSiteSSRAppStackImageOriginRequestD5578A34" style="outlineConnect=0;fontColor=#B3B3B3;gradientColor=#945DF2;gradientDirection=north;fillColor=#5A30B5;strokeColor=#ffffff;dashed=0;verticalLabelPosition=bottom;verticalAlign=top;align=center;html=1;fontSize=12;fontStyle=0;aspect=fixed;shape=mxgraph.aws4.resourceIcon;resIcon=mxgraph.aws4.cloudfront;" vertex="1" parent="1"><mxGeometry x="500" y="900" width="50" height="50" as="geometry"/></mxCell><mxCell id="19" value="NextJSLambdaEdgeExampleSiteSSRAppStackNextJSDistributionOrigin1S3Origin13DBAF06" style="outlineConnect=0;fontColor=#B3B3B3;gradientColor=#945DF2;gradientDirection=north;fillColor=#5A30B5;strokeColor=#ffffff;dashed=0;verticalLabelPosition=bottom;verticalAlign=top;align=center;html=1;fontSize=12;fontStyle=0;aspect=fixed;shape=mxgraph.aws4.resourceIcon;resIcon=mxgraph.aws4.cloudfront;" vertex="1" parent="1"><mxGeometry x="500" y="600" width="50" height="50" as="geometry"/></mxCell><mxCell id="20" value="NextJSLambdaEdgeExampleSiteSSRAppStackNextJSDistributionOrigin2S3OriginB89F5CE3" style="outlineConnect=0;fontColor=#B3B3B3;gradientColor=#945DF2;gradientDirection=north;fillColor=#5A30B5;strokeColor=#ffffff;dashed=0;verticalLabelPosition=bottom;verticalAlign=top;align=center;html=1;fontSize=12;fontStyle=0;aspect=fixed;shape=mxgraph.aws4.resourceIcon;resIcon=mxgraph.aws4.cloudfront;" vertex="1" parent="1"><mxGeometry x="500" y="200" width="50" height="50" as="geometry"/></mxCell><mxCell id="21" value="NextJSLambdaEdgeExampleSiteSSRAppStackNextJSDistributionOrigin3S3Origin63AD8A33" style="outlineConnect=0;fontColor=#B3B3B3;gradientColor=#945DF2;gradientDirection=north;fillColor=#5A30B5;strokeColor=#ffffff;dashed=0;verticalLabelPosition=bottom;verticalAlign=top;align=center;html=1;fontSize=12;fontStyle=0;aspect=fixed;shape=mxgraph.aws4.resourceIcon;resIcon=mxgraph.aws4.cloudfront;" vertex="1" parent="1"><mxGeometry x="500" y="300" width="50" height="50" as="geometry"/></mxCell><mxCell id="22" value="NextJSLambdaEdgeExampleSiteSSRAppStackNextJSDistributionOrigin4S3OriginB6267B3F" style="outlineConnect=0;fontColor=#B3B3B3;gradientColor=#945DF2;gradientDirection=north;fillColor=#5A30B5;strokeColor=#ffffff;dashed=0;verticalLabelPosition=bottom;verticalAlign=top;align=center;html=1;fontSize=12;fontStyle=0;aspect=fixed;shape=mxgraph.aws4.resourceIcon;resIcon=mxgraph.aws4.cloudfront;" vertex="1" parent="1"><mxGeometry x="500" y="400" width="50" height="50" as="geometry"/></mxCell><mxCell id="23" value="NextJSLambdaEdgeExampleSiteSSRAppStackNextJSDistributionOrigin5S3OriginEAEA4DB8" style="outlineConnect=0;fontColor=#B3B3B3;gradientColor=#945DF2;gradientDirection=north;fillColor=#5A30B5;strokeColor=#ffffff;dashed=0;verticalLabelPosition=bottom;verticalAlign=top;align=center;html=1;fontSize=12;fontStyle=0;aspect=fixed;shape=mxgraph.aws4.resourceIcon;resIcon=mxgraph.aws4.cloudfront;" vertex="1" parent="1"><mxGeometry x="500" y="500" width="50" height="50" as="geometry"/></mxCell><mxCell id="24" value="NextJSLambdaEdgeExampleSiteSSRAppStackNextJSDistribution4DBF7638" style="outlineConnect=0;fontColor=#B3B3B3;gradientColor=#945DF2;gradientDirection=north;fillColor=#5A30B5;strokeColor=#ffffff;dashed=0;verticalLabelPosition=bottom;verticalAlign=top;align=center;html=1;fontSize=12;fontStyle=0;aspect=fixed;shape=mxgraph.aws4.resourceIcon;resIcon=mxgraph.aws4.cloudfront;" vertex="1" parent="1"><mxGeometry x="250" y="600" width="50" height="50" as="geometry"/></mxCell><mxCell id="25" value="NextJSLambdaEdgeExampleSiteSSRAppStackAssetDeploymentBuildIDAwsCliLayer2A83ED32" style="outlineConnect=0;fontColor=#B3B3B3;gradientColor=#F78E04;gradientDirection=north;fillColor=#D05C17;strokeColor=#ffffff;dashed=0;verticalLabelPosition=bottom;verticalAlign=top;align=center;html=1;fontSize=12;fontStyle=0;aspect=fixed;shape=mxgraph.aws4.resourceIcon;resIcon=mxgraph.aws4.lambda;" vertex="1" parent="1"><mxGeometry x="500" y="1750" width="50" height="50" as="geometry"/></mxCell><mxCell id="26" value="NextJSLambdaEdgeExampleSiteSSRAppStackAssetDeploymentBuildIDCustomResource22B3AB09" style="outlineConnect=0;fontColor=#B3B3B3;gradientColor=#aaaaaa;gradientDirection=north;fillColor=#aaaaaa;strokeColor=#ffffff;dashed=0;verticalLabelPosition=bottom;verticalAlign=top;align=center;html=1;fontSize=12;fontStyle=0;aspect=fixed;shape=mxgraph.aws4.resourceIcon;resIcon=mxgraph.aws4.cdkbucketdeployment;" vertex="1" parent="1"><mxGeometry y="875" width="50" height="50" as="geometry"/></mxCell><mxCell id="27" value="NextJSLambdaEdgeExampleSiteSSRAppStackAssetDeploymentpublicFilesAwsCliLayer4ADAC08D" style="outlineConnect=0;fontColor=#B3B3B3;gradientColor=#F78E04;gradientDirection=north;fillColor=#D05C17;strokeColor=#ffffff;dashed=0;verticalLabelPosition=bottom;verticalAlign=top;align=center;html=1;fontSize=12;fontStyle=0;aspect=fixed;shape=mxgraph.aws4.resourceIcon;resIcon=mxgraph.aws4.lambda;" vertex="1" parent="1"><mxGeometry y="1900" width="50" height="50" as="geometry"/></mxCell><mxCell id="28" value="NextJSLambdaEdgeExampleSiteSSRAppStackAssetDeploymentpublicFilesCustomResource7CB41A99" style="outlineConnect=0;fontColor=#B3B3B3;gradientColor=#aaaaaa;gradientDirection=north;fillColor=#aaaaaa;strokeColor=#ffffff;dashed=0;verticalLabelPosition=bottom;verticalAlign=top;align=center;html=1;fontSize=12;fontStyle=0;aspect=fixed;shape=mxgraph.aws4.resourceIcon;resIcon=mxgraph.aws4.cdkbucketdeployment;" vertex="1" parent="1"><mxGeometry y="975" width="50" height="50" as="geometry"/></mxCell><mxCell id="29" value="NextJSLambdaEdgeExampleSiteSSRAppStackAssetDeploymentstaticPagesAwsCliLayer9C65CE34" style="outlineConnect=0;fontColor=#B3B3B3;gradientColor=#F78E04;gradientDirection=north;fillColor=#D05C17;strokeColor=#ffffff;dashed=0;verticalLabelPosition=bottom;verticalAlign=top;align=center;html=1;fontSize=12;fontStyle=0;aspect=fixed;shape=mxgraph.aws4.resourceIcon;resIcon=mxgraph.aws4.lambda;" vertex="1" parent="1"><mxGeometry y="2050" width="50" height="50" as="geometry"/></mxCell><mxCell id="30" value="NextJSLambdaEdgeExampleSiteSSRAppStackAssetDeploymentstaticPagesCustomResourceC79D31BB" style="outlineConnect=0;fontColor=#B3B3B3;gradientColor=#aaaaaa;gradientDirection=north;fillColor=#aaaaaa;strokeColor=#ffffff;dashed=0;verticalLabelPosition=bottom;verticalAlign=top;align=center;html=1;fontSize=12;fontStyle=0;aspect=fixed;shape=mxgraph.aws4.resourceIcon;resIcon=mxgraph.aws4.cdkbucketdeployment;" vertex="1" parent="1"><mxGeometry y="1075" width="50" height="50" as="geometry"/></mxCell><mxCell id="31" value="NextJSLambdaEdgeExampleSiteSSRAppStackAssetDeploymentnextStaticAwsCliLayer6C12F061" style="outlineConnect=0;fontColor=#B3B3B3;gradientColor=#F78E04;gradientDirection=north;fillColor=#D05C17;strokeColor=#ffffff;dashed=0;verticalLabelPosition=bottom;verticalAlign=top;align=center;html=1;fontSize=12;fontStyle=0;aspect=fixed;shape=mxgraph.aws4.resourceIcon;resIcon=mxgraph.aws4.lambda;" vertex="1" parent="1"><mxGeometry y="2200" width="50" height="50" as="geometry"/></mxCell><mxCell id="32" value="NextJSLambdaEdgeExampleSiteSSRAppStackAssetDeploymentnextStaticCustomResourceD6173BE6" style="outlineConnect=0;fontColor=#B3B3B3;gradientColor=#aaaaaa;gradientDirection=north;fillColor=#aaaaaa;strokeColor=#ffffff;dashed=0;verticalLabelPosition=bottom;verticalAlign=top;align=center;html=1;fontSize=12;fontStyle=0;aspect=fixed;shape=mxgraph.aws4.resourceIcon;resIcon=mxgraph.aws4.cdkbucketdeployment;" vertex="1" parent="1"><mxGeometry y="1487.5" width="50" height="50" as="geometry"/></mxCell><mxCell id="33" value="CustomS3AutoDeleteObjectsCustomResourceProviderRole3B1BD092" style="outlineConnect=0;fontColor=#B3B3B3;gradientColor=#F54749;gradientDirection=north;fillColor=#C7131F;strokeColor=#ffffff;dashed=0;verticalLabelPosition=bottom;verticalAlign=top;align=center;html=1;fontSize=12;fontStyle=0;aspect=fixed;shape=mxgraph.aws4.resourceIcon;resIcon=mxgraph.aws4.role;" vertex="1" parent="1"><mxGeometry x="500" y="50" width="50" height="50" as="geometry"/></mxCell><mxCell id="34" value="CustomS3AutoDeleteObjectsCustomResourceProviderHandler9D90184F" style="outlineConnect=0;fontColor=#B3B3B3;gradientColor=#F78E04;gradientDirection=north;fillColor=#D05C17;strokeColor=#ffffff;dashed=0;verticalLabelPosition=bottom;verticalAlign=top;align=center;html=1;fontSize=12;fontStyle=0;aspect=fixed;shape=mxgraph.aws4.resourceIcon;resIcon=mxgraph.aws4.lambda;" vertex="1" parent="1"><mxGeometry x="250" y="300" width="50" height="50" as="geometry"/></mxCell><mxCell id="35" value="LogRetentionaae0aa3c5b4d4f87b02d85b201efdd8aServiceRole9741ECFB" style="outlineConnect=0;fontColor=#B3B3B3;gradientColor=#F54749;gradientDirection=north;fillColor=#C7131F;strokeColor=#ffffff;dashed=0;verticalLabelPosition=bottom;verticalAlign=top;align=center;html=1;fontSize=12;fontStyle=0;aspect=fixed;shape=mxgraph.aws4.resourceIcon;resIcon=mxgraph.aws4.role;" vertex="1" parent="1"><mxGeometry x="500" y="1550" width="50" height="50" as="geometry"/></mxCell><mxCell id="36" value="LogRetentionaae0aa3c5b4d4f87b02d85b201efdd8aServiceRoleDefaultPolicyADDA7DEB" style="outlineConnect=0;fontColor=#B3B3B3;gradientColor=#F54749;gradientDirection=north;fillColor=#C7131F;strokeColor=#ffffff;dashed=0;verticalLabelPosition=bottom;verticalAlign=top;align=center;html=1;fontSize=12;fontStyle=0;aspect=fixed;shape=mxgraph.aws4.resourceIcon;resIcon=mxgraph.aws4.identity_and_access_management;" vertex="1" parent="1"><mxGeometry x="250" y="1350" width="50" height="50" as="geometry"/></mxCell><mxCell id="37" value="LogRetentionaae0aa3c5b4d4f87b02d85b201efdd8aFD4BFC8A" style="outlineConnect=0;fontColor=#B3B3B3;gradientColor=#F78E04;gradientDirection=north;fillColor=#D05C17;strokeColor=#ffffff;dashed=0;verticalLabelPosition=bottom;verticalAlign=top;align=center;html=1;fontSize=12;fontStyle=0;aspect=fixed;shape=mxgraph.aws4.resourceIcon;resIcon=mxgraph.aws4.lambda;" vertex="1" parent="1"><mxGeometry x="250" y="950" width="50" height="50" as="geometry"/></mxCell><mxCell id="38" value="CustomCDKBucketDeployment8693BB64968944B69AAFB0CC9EB8756CServiceRole89A01265" style="outlineConnect=0;fontColor=#B3B3B3;gradientColor=#F54749;gradientDirection=north;fillColor=#C7131F;strokeColor=#ffffff;dashed=0;verticalLabelPosition=bottom;verticalAlign=top;align=center;html=1;fontSize=12;fontStyle=0;aspect=fixed;shape=mxgraph.aws4.resourceIcon;resIcon=mxgraph.aws4.role;" vertex="1" parent="1"><mxGeometry x="500" y="1650" width="50" height="50" as="geometry"/></mxCell><mxCell id="39" value="CustomCDKBucketDeployment8693BB64968944B69AAFB0CC9EB8756CServiceRoleDefaultPolicy88902FDF" style="outlineConnect=0;fontColor=#B3B3B3;gradientColor=#F54749;gradientDirection=north;fillColor=#C7131F;strokeColor=#ffffff;dashed=0;verticalLabelPosition=bottom;verticalAlign=top;align=center;html=1;fontSize=12;fontStyle=0;aspect=fixed;shape=mxgraph.aws4.resourceIcon;resIcon=mxgraph.aws4.identity_and_access_management;" vertex="1" parent="1"><mxGeometry x="250" y="1250" width="50" height="50" as="geometry"/></mxCell><mxCell id="40" value="CustomCDKBucketDeployment8693BB64968944B69AAFB0CC9EB8756C81C01536" style="outlineConnect=0;fontColor=#B3B3B3;gradientColor=#F78E04;gradientDirection=north;fillColor=#D05C17;strokeColor=#ffffff;dashed=0;verticalLabelPosition=bottom;verticalAlign=top;align=center;html=1;fontSize=12;fontStyle=0;aspect=fixed;shape=mxgraph.aws4.resourceIcon;resIcon=mxgraph.aws4.lambda;" vertex="1" parent="1"><mxGeometry x="250" y="1450" width="50" height="50" as="geometry"/></mxCell><mxCell id="41" value="iam  aws&#xA;policy/service-role/awslambdabasicexecutionrole" style="outlineConnect=0;fontColor=#B3B3B3;gradientColor=#aaaaaa;gradientDirection=north;fillColor=#aaaaaa;strokeColor=#ffffff;dashed=0;verticalLabelPosition=bottom;verticalAlign=top;align=center;html=1;fontSize=12;fontStyle=0;aspect=fixed;shape=mxgraph.aws4.resourceIcon;resIcon=mxgraph.aws4.identity_and_access_management;" vertex="1" parent="1"><mxGeometry x="1250" y="856.25" width="50" height="50" as="geometry"/></mxCell><mxCell id="NextJSLambdaEdgeExampleSiteSSRAppStackPublicAssets23D0591A|NextJSLambdaEdgeExampleSiteSSRAppStackPublicAssetsPolicy173F03F1" value="Bucket&#xA;Resource" style="edgeStyle=orthogonalEdgeStyle;rounded=1;orthogonalLoop=1;jettySize=auto;html=1;labelBackgroundColor=none;fontColor=#EA6B66;noEdgeStyle=1;orthogonal=1;" edge="1" parent="1" source="3" target="2"><mxGeometry relative="1" as="geometry"><Array as="points"><mxPoint x="312" y="446.42857142857156"/><mxPoint x="486" y="1458.3333333333335"/></Array></mxGeometry></mxCell><mxCell id="CustomS3AutoDeleteObjectsCustomResourceProviderRole3B1BD092|NextJSLambdaEdgeExampleSiteSSRAppStackPublicAssetsPolicy173F03F1" value="AWS" style="edgeStyle=orthogonalEdgeStyle;rounded=1;orthogonalLoop=1;jettySize=auto;html=1;labelBackgroundColor=none;fontColor=#EA6B66;noEdgeStyle=1;orthogonal=1;" edge="1" parent="1" source="3" target="33"><mxGeometry relative="1" as="geometry"><Array as="points"><mxPoint x="312" y="403.57142857142856"/><mxPoint x="488" y="85"/></Array></mxGeometry></mxCell><mxCell id="NextJSLambdaEdgeExampleSiteSSRAppStackNextJSDistributionOrigin1S3Origin13DBAF06|NextJSLambdaEdgeExampleSiteSSRAppStackPublicAssetsPolicy173F03F1" value="CanonicalUser" style="edgeStyle=orthogonalEdgeStyle;rounded=1;orthogonalLoop=1;jettySize=auto;html=1;labelBackgroundColor=none;fontColor=#EA6B66;noEdgeStyle=1;orthogonal=1;" edge="1" parent="1" source="3" target="19"><mxGeometry relative="1" as="geometry"><Array as="points"><mxPoint x="314" y="439.2857142857144"/><mxPoint x="488" y="615"/></Array></mxGeometry></mxCell><mxCell id="NextJSLambdaEdgeExampleSiteSSRAppStackNextJSDistributionOrigin2S3OriginB89F5CE3|NextJSLambdaEdgeExampleSiteSSRAppStackPublicAssetsPolicy173F03F1" value="CanonicalUser" style="edgeStyle=orthogonalEdgeStyle;rounded=1;orthogonalLoop=1;jettySize=auto;html=1;labelBackgroundColor=none;fontColor=#EA6B66;noEdgeStyle=1;orthogonal=1;" edge="1" parent="1" source="3" target="20"><mxGeometry relative="1" as="geometry"><Array as="points"><mxPoint x="314" y="410.7142857142857"/><mxPoint x="488" y="215"/></Array></mxGeometry></mxCell><mxCell id="NextJSLambdaEdgeExampleSiteSSRAppStackNextJSDistributionOrigin3S3Origin63AD8A33|NextJSLambdaEdgeExampleSiteSSRAppStackPublicAssetsPolicy173F03F1" value="CanonicalUser" style="edgeStyle=orthogonalEdgeStyle;rounded=1;orthogonalLoop=1;jettySize=auto;html=1;labelBackgroundColor=none;fontColor=#EA6B66;noEdgeStyle=1;orthogonal=1;" edge="1" parent="1" source="3" target="21"><mxGeometry relative="1" as="geometry"><Array as="points"><mxPoint x="316" y="417.8571428571429"/><mxPoint x="488" y="315"/></Array></mxGeometry></mxCell><mxCell id="NextJSLambdaEdgeExampleSiteSSRAppStackNextJSDistributionOrigin4S3OriginB6267B3F|NextJSLambdaEdgeExampleSiteSSRAppStackPublicAssetsPolicy173F03F1" value="CanonicalUser" style="edgeStyle=orthogonalEdgeStyle;rounded=1;orthogonalLoop=1;jettySize=auto;html=1;labelBackgroundColor=none;fontColor=#EA6B66;noEdgeStyle=1;orthogonal=1;" edge="1" parent="1" source="3" target="22"><mxGeometry relative="1" as="geometry"><Array as="points"><mxPoint x="318" y="425.00000000000006"/><mxPoint x="488" y="415"/></Array></mxGeometry></mxCell><mxCell id="NextJSLambdaEdgeExampleSiteSSRAppStackNextJSDistributionOrigin5S3OriginEAEA4DB8|NextJSLambdaEdgeExampleSiteSSRAppStackPublicAssetsPolicy173F03F1" value="CanonicalUser" style="edgeStyle=orthogonalEdgeStyle;rounded=1;orthogonalLoop=1;jettySize=auto;html=1;labelBackgroundColor=none;fontColor=#EA6B66;noEdgeStyle=1;orthogonal=1;" edge="1" parent="1" source="3" target="23"><mxGeometry relative="1" as="geometry"><Array as="points"><mxPoint x="316" y="432.1428571428572"/><mxPoint x="488" y="515"/></Array></mxGeometry></mxCell><mxCell id="NextJSLambdaEdgeExampleSiteSSRAppStackPublicAssets23D0591A|NextJSLambdaEdgeExampleSiteSSRAppStackPublicAssetsAutoDeleteObjectsCustomResource75CDB95A" value="BucketName" style="edgeStyle=orthogonalEdgeStyle;rounded=1;orthogonalLoop=1;jettySize=auto;html=1;labelBackgroundColor=none;fontColor=#EA6B66;noEdgeStyle=1;orthogonal=1;" edge="1" parent="1" source="4" target="2"><mxGeometry relative="1" as="geometry"><Array as="points"><mxPoint x="62" y="710"/><mxPoint x="150" y="900"/><mxPoint x="400" y="900"/><mxPoint x="482" y="1469.4444444444448"/></Array></mxGeometry></mxCell><mxCell id="CustomS3AutoDeleteObjectsCustomResourceProviderHandler9D90184F|NextJSLambdaEdgeExampleSiteSSRAppStackPublicAssetsAutoDeleteObjectsCustomResource75CDB95A" value="ServiceToken" style="edgeStyle=orthogonalEdgeStyle;rounded=1;orthogonalLoop=1;jettySize=auto;html=1;labelBackgroundColor=none;fontColor=#EA6B66;noEdgeStyle=1;orthogonal=1;" edge="1" parent="1" source="4" target="34"><mxGeometry relative="1" as="geometry"><Array as="points"><mxPoint x="62" y="690"/><mxPoint x="238" y="325"/></Array></mxGeometry></mxCell><mxCell id="iam  aws&#xA;policy/service-role/awslambdabasicexecutionrole|NextJSLambdaEdgeExampleSiteSSRAppStackNextEdgeLambdaRole1A1138A5" value="ManagedPolicyArns" style="edgeStyle=orthogonalEdgeStyle;rounded=1;orthogonalLoop=1;jettySize=auto;html=1;labelBackgroundColor=none;fontColor=#EA6B66;noEdgeStyle=1;orthogonal=1;" edge="1" parent="1" source="5" target="41"><mxGeometry relative="1" as="geometry"><Array as="points"><mxPoint x="1062" y="918.75"/><mxPoint x="1238" y="891.25"/></Array></mxGeometry></mxCell><mxCell id="NextJSLambdaEdgeExampleSiteSSRAppStackNextEdgeLambdaRole1A1138A5|NextJSLambdaEdgeExampleSiteSSRAppStackNextLambdaBCB10193" value="Role" style="edgeStyle=orthogonalEdgeStyle;rounded=1;orthogonalLoop=1;jettySize=auto;html=1;labelBackgroundColor=none;fontColor=#EA6B66;noEdgeStyle=1;orthogonal=1;" edge="1" parent="1" source="6" target="5"><mxGeometry relative="1" as="geometry"><Array as="points"><mxPoint x="812" y="534.375"/><mxPoint x="988" y="908.75"/></Array></mxGeometry></mxCell><mxCell id="NextJSLambdaEdgeExampleSiteSSRAppStackNextLambdaBCB10193|NextJSLambdaEdgeExampleSiteSSRAppStackNextLambdaLogRetention7A9B8A25" value="LogGroupName" style="edgeStyle=orthogonalEdgeStyle;rounded=1;orthogonalLoop=1;jettySize=auto;html=1;labelBackgroundColor=none;fontColor=#EA6B66;noEdgeStyle=1;orthogonal=1;" edge="1" parent="1" source="7" target="6"><mxGeometry relative="1" as="geometry"><Array as="points"><mxPoint x="62" y="590"/><mxPoint x="150"/><mxPoint x="400"/><mxPoint x="400"/><mxPoint x="650"/><mxPoint x="738" y="521.0416666666666"/></Array></mxGeometry></mxCell><mxCell id="LogRetentionaae0aa3c5b4d4f87b02d85b201efdd8aFD4BFC8A|NextJSLambdaEdgeExampleSiteSSRAppStackNextLambdaLogRetention7A9B8A25" value="ServiceToken" style="edgeStyle=orthogonalEdgeStyle;rounded=1;orthogonalLoop=1;jettySize=auto;html=1;labelBackgroundColor=none;fontColor=#EA6B66;noEdgeStyle=1;orthogonal=1;" edge="1" parent="1" source="7" target="37"><mxGeometry relative="1" as="geometry"><Array as="points"><mxPoint x="62" y="610"/><mxPoint x="238" y="965"/></Array></mxGeometry></mxCell><mxCell id="NextJSLambdaEdgeExampleSiteSSRAppStackNextLambdaBCB10193|NextJSLambdaEdgeExampleSiteSSRAppStackNextLambdaCurrentVersion29E6A30B9ed1d395273429d843617a47ea17240e" value="FunctionName" style="edgeStyle=orthogonalEdgeStyle;rounded=1;orthogonalLoop=1;jettySize=auto;html=1;labelBackgroundColor=none;fontColor=#EA6B66;noEdgeStyle=1;orthogonal=1;" edge="1" parent="1" source="8" target="6"><mxGeometry relative="1" as="geometry"><Array as="points"><mxPoint x="562" y="725"/><mxPoint x="738" y="547.7083333333334"/></Array></mxGeometry></mxCell><mxCell id="NextJSLambdaEdgeExampleSiteSSRAppStackNextLambdaBCB10193|NextJSLambdaEdgeExampleSiteSSRAppStackNextLambdaCurrentVersionAliasliveCA41A06C" value="FunctionName" style="edgeStyle=orthogonalEdgeStyle;rounded=1;orthogonalLoop=1;jettySize=auto;html=1;labelBackgroundColor=none;fontColor=#EA6B66;noEdgeStyle=1;orthogonal=1;" edge="1" parent="1" source="9" target="6"><mxGeometry relative="1" as="geometry"><Array as="points"><mxPoint x="312" y="515"/><mxPoint x="400" y="150"/><mxPoint x="650" y="150"/><mxPoint x="736" y="534.375"/></Array></mxGeometry></mxCell><mxCell id="NextJSLambdaEdgeExampleSiteSSRAppStackNextLambdaCurrentVersion29E6A30B9ed1d395273429d843617a47ea17240e|NextJSLambdaEdgeExampleSiteSSRAppStackNextLambdaCurrentVersionAliasliveCA41A06C" value="FunctionVersion" style="edgeStyle=orthogonalEdgeStyle;rounded=1;orthogonalLoop=1;jettySize=auto;html=1;labelBackgroundColor=none;fontColor=#EA6B66;noEdgeStyle=1;orthogonal=1;" edge="1" parent="1" source="9" target="8"><mxGeometry relative="1" as="geometry"><Array as="points"><mxPoint x="312" y="535"/><mxPoint x="488" y="715"/></Array></mxGeometry></mxCell><mxCell id="NextJSLambdaEdgeExampleSiteSSRAppStackNextEdgeLambdaRole1A1138A5|NextJSLambdaEdgeExampleSiteSSRAppStackNextImageLambda27933087" value="Role" style="edgeStyle=orthogonalEdgeStyle;rounded=1;orthogonalLoop=1;jettySize=auto;html=1;labelBackgroundColor=none;fontColor=#EA6B66;noEdgeStyle=1;orthogonal=1;" edge="1" parent="1" source="10" target="5"><mxGeometry relative="1" as="geometry"><Array as="points"><mxPoint x="812" y="1233.75"/><mxPoint x="988" y="928.75"/></Array></mxGeometry></mxCell><mxCell id="NextJSLambdaEdgeExampleSiteSSRAppStackNextImageLambda27933087|NextJSLambdaEdgeExampleSiteSSRAppStackNextImageLambdaLogRetention37DF2D80" value="LogGroupName" style="edgeStyle=orthogonalEdgeStyle;rounded=1;orthogonalLoop=1;jettySize=auto;html=1;labelBackgroundColor=none;fontColor=#EA6B66;noEdgeStyle=1;orthogonal=1;" edge="1" parent="1" source="11" target="10"><mxGeometry relative="1" as="geometry"><Array as="points"><mxPoint x="62" y="810"/><mxPoint x="150" y="1050"/><mxPoint x="400" y="1050"/><mxPoint x="400" y="1400"/><mxPoint x="650" y="1400"/><mxPoint x="738" y="1248.75"/></Array></mxGeometry></mxCell><mxCell id="LogRetentionaae0aa3c5b4d4f87b02d85b201efdd8aFD4BFC8A|NextJSLambdaEdgeExampleSiteSSRAppStackNextImageLambdaLogRetention37DF2D80" value="ServiceToken" style="edgeStyle=orthogonalEdgeStyle;rounded=1;orthogonalLoop=1;jettySize=auto;html=1;labelBackgroundColor=none;fontColor=#EA6B66;noEdgeStyle=1;orthogonal=1;" edge="1" parent="1" source="11" target="37"><mxGeometry relative="1" as="geometry"><Array as="points"><mxPoint x="62" y="790"/><mxPoint x="238" y="985"/></Array></mxGeometry></mxCell><mxCell id="NextJSLambdaEdgeExampleSiteSSRAppStackNextImageLambda27933087|NextJSLambdaEdgeExampleSiteSSRAppStackNextImageLambdaCurrentVersion415176EFd52fd4ee4d5cb43535123616f6eb9732" value="FunctionName" style="edgeStyle=orthogonalEdgeStyle;rounded=1;orthogonalLoop=1;jettySize=auto;html=1;labelBackgroundColor=none;fontColor=#EA6B66;noEdgeStyle=1;orthogonal=1;" edge="1" parent="1" source="12" target="10"><mxGeometry relative="1" as="geometry"><Array as="points"><mxPoint x="562" y="1275"/><mxPoint x="736" y="1228.75"/></Array></mxGeometry></mxCell><mxCell id="NextJSLambdaEdgeExampleSiteSSRAppStackNextImageLambda27933087|NextJSLambdaEdgeExampleSiteSSRAppStackNextImageLambdaCurrentVersionEventInvokeConfig4F02B6B8" value="FunctionName" style="edgeStyle=orthogonalEdgeStyle;rounded=1;orthogonalLoop=1;jettySize=auto;html=1;labelBackgroundColor=none;fontColor=#EA6B66;noEdgeStyle=1;orthogonal=1;" edge="1" parent="1" source="13" target="10"><mxGeometry relative="1" as="geometry"><Array as="points"><mxPoint x="312" y="715"/><mxPoint x="400" y="1200"/><mxPoint x="650" y="1200"/><mxPoint x="738" y="1218.75"/></Array></mxGeometry></mxCell><mxCell id="NextJSLambdaEdgeExampleSiteSSRAppStackNextImageLambdaCurrentVersion415176EFd52fd4ee4d5cb43535123616f6eb9732|NextJSLambdaEdgeExampleSiteSSRAppStackNextImageLambdaCurrentVersionEventInvokeConfig4F02B6B8" value="Qualifier" style="edgeStyle=orthogonalEdgeStyle;rounded=1;orthogonalLoop=1;jettySize=auto;html=1;labelBackgroundColor=none;fontColor=#EA6B66;noEdgeStyle=1;orthogonal=1;" edge="1" parent="1" source="13" target="12"><mxGeometry relative="1" as="geometry"><Array as="points"><mxPoint x="312" y="735"/><mxPoint x="486" y="1275"/></Array></mxGeometry></mxCell><mxCell id="NextJSLambdaEdgeExampleSiteSSRAppStackNextImageLambda27933087|NextJSLambdaEdgeExampleSiteSSRAppStackNextImageLambdaCurrentVersionAliaslive41F855CE" value="FunctionName" style="edgeStyle=orthogonalEdgeStyle;rounded=1;orthogonalLoop=1;jettySize=auto;html=1;labelBackgroundColor=none;fontColor=#EA6B66;noEdgeStyle=1;orthogonal=1;" edge="1" parent="1" source="14" target="10"><mxGeometry relative="1" as="geometry"><Array as="points"><mxPoint x="312" y="835"/><mxPoint x="400" y="1350"/><mxPoint x="650" y="1350"/><mxPoint x="736" y="1238.75"/></Array></mxGeometry></mxCell><mxCell id="NextJSLambdaEdgeExampleSiteSSRAppStackNextImageLambdaCurrentVersion415176EFd52fd4ee4d5cb43535123616f6eb9732|NextJSLambdaEdgeExampleSiteSSRAppStackNextImageLambdaCurrentVersionAliaslive41F855CE" value="FunctionVersion" style="edgeStyle=orthogonalEdgeStyle;rounded=1;orthogonalLoop=1;jettySize=auto;html=1;labelBackgroundColor=none;fontColor=#EA6B66;noEdgeStyle=1;orthogonal=1;" edge="1" parent="1" source="14" target="12"><mxGeometry relative="1" as="geometry"><Array as="points"><mxPoint x="312" y="815"/><mxPoint x="488" y="1288.3333333333333"/></Array></mxGeometry></mxCell><mxCell id="NextJSLambdaEdgeExampleSiteSSRAppStackNextImageCacheF3D4A686|NextJSLambdaEdgeExampleSiteSSRAppStackNextJSDistribution4DBF7638" value="CachePolicyId" style="edgeStyle=orthogonalEdgeStyle;rounded=1;orthogonalLoop=1;jettySize=auto;html=1;labelBackgroundColor=none;fontColor=#EA6B66;noEdgeStyle=1;orthogonal=1;" edge="1" parent="1" source="24" target="16"><mxGeometry relative="1" as="geometry"><Array as="points"><mxPoint x="322" y="627.0833333333331"/><mxPoint x="488" y="825"/></Array></mxGeometry></mxCell><mxCell id="NextJSLambdaEdgeExampleSiteSSRAppStackNextImageLambdaCurrentVersion415176EFd52fd4ee4d5cb43535123616f6eb9732|NextJSLambdaEdgeExampleSiteSSRAppStackNextJSDistribution4DBF7638" value="LambdaFunctionARN" style="edgeStyle=orthogonalEdgeStyle;rounded=1;orthogonalLoop=1;jettySize=auto;html=1;labelBackgroundColor=none;fontColor=#EA6B66;noEdgeStyle=1;orthogonal=1;" edge="1" parent="1" source="24" target="12"><mxGeometry relative="1" as="geometry"><Array as="points"><mxPoint x="314" y="643.7499999999997"/><mxPoint x="488" y="1261.6666666666667"/></Array></mxGeometry></mxCell><mxCell id="NextJSLambdaEdgeExampleSiteSSRAppStackImageOriginRequestD5578A34|NextJSLambdaEdgeExampleSiteSSRAppStackNextJSDistribution4DBF7638" value="OriginRequestPolicyId" style="edgeStyle=orthogonalEdgeStyle;rounded=1;orthogonalLoop=1;jettySize=auto;html=1;labelBackgroundColor=none;fontColor=#EA6B66;noEdgeStyle=1;orthogonal=1;" edge="1" parent="1" source="24" target="18"><mxGeometry relative="1" as="geometry"><Array as="points"><mxPoint x="320" y="631.2499999999998"/><mxPoint x="488" y="925"/></Array></mxGeometry></mxCell><mxCell id="NextJSLambdaEdgeExampleSiteSSRAppStackNextLambdaCache5203604E|NextJSLambdaEdgeExampleSiteSSRAppStackNextJSDistribution4DBF7638" value="CachePolicyId" style="edgeStyle=orthogonalEdgeStyle;rounded=1;orthogonalLoop=1;jettySize=auto;html=1;labelBackgroundColor=none;fontColor=#EA6B66;noEdgeStyle=1;orthogonal=1;" edge="1" parent="1" source="24" target="17"><mxGeometry relative="1" as="geometry"><Array as="points"><mxPoint x="318" y="635.4166666666664"/><mxPoint x="488" y="1025"/></Array></mxGeometry></mxCell><mxCell id="NextJSLambdaEdgeExampleSiteSSRAppStackNextLambdaCurrentVersion29E6A30B9ed1d395273429d843617a47ea17240e|NextJSLambdaEdgeExampleSiteSSRAppStackNextJSDistribution4DBF7638" value="LambdaFunctionARN" style="edgeStyle=orthogonalEdgeStyle;rounded=1;orthogonalLoop=1;jettySize=auto;html=1;labelBackgroundColor=none;fontColor=#EA6B66;noEdgeStyle=1;orthogonal=1;" edge="1" parent="1" source="24" target="8"><mxGeometry relative="1" as="geometry"><Array as="points"><mxPoint x="322" y="622.9166666666665"/><mxPoint x="488" y="735"/></Array></mxGeometry></mxCell><mxCell id="NextJSLambdaEdgeExampleSiteSSRAppStackNextStaticsCache69A2F53D|NextJSLambdaEdgeExampleSiteSSRAppStackNextJSDistribution4DBF7638" value="CachePolicyId" style="edgeStyle=orthogonalEdgeStyle;rounded=1;orthogonalLoop=1;jettySize=auto;html=1;labelBackgroundColor=none;fontColor=#EA6B66;noEdgeStyle=1;orthogonal=1;" edge="1" parent="1" source="24" target="15"><mxGeometry relative="1" as="geometry"><Array as="points"><mxPoint x="316" y="639.583333333333"/><mxPoint x="488" y="1125"/></Array></mxGeometry></mxCell><mxCell id="NextJSLambdaEdgeExampleSiteSSRAppStackNextJSDistributionOrigin1S3Origin13DBAF06|NextJSLambdaEdgeExampleSiteSSRAppStackNextJSDistribution4DBF7638" value="OriginAccessIdentity" style="edgeStyle=orthogonalEdgeStyle;rounded=1;orthogonalLoop=1;jettySize=auto;html=1;labelBackgroundColor=none;fontColor=#EA6B66;noEdgeStyle=1;orthogonal=1;" edge="1" parent="1" source="24" target="19"><mxGeometry relative="1" as="geometry"><Array as="points"><mxPoint x="320" y="618.7499999999999"/><mxPoint x="488" y="635"/></Array></mxGeometry></mxCell><mxCell id="NextJSLambdaEdgeExampleSiteSSRAppStackNextJSDistributionOrigin2S3OriginB89F5CE3|NextJSLambdaEdgeExampleSiteSSRAppStackNextJSDistribution4DBF7638" value="OriginAccessIdentity" style="edgeStyle=orthogonalEdgeStyle;rounded=1;orthogonalLoop=1;jettySize=auto;html=1;labelBackgroundColor=none;fontColor=#EA6B66;noEdgeStyle=1;orthogonal=1;" edge="1" parent="1" source="24" target="20"><mxGeometry relative="1" as="geometry"><Array as="points"><mxPoint x="312" y="602.0833333333334"/><mxPoint x="488" y="235"/></Array></mxGeometry></mxCell><mxCell id="NextJSLambdaEdgeExampleSiteSSRAppStackNextJSDistributionOrigin3S3Origin63AD8A33|NextJSLambdaEdgeExampleSiteSSRAppStackNextJSDistribution4DBF7638" value="OriginAccessIdentity" style="edgeStyle=orthogonalEdgeStyle;rounded=1;orthogonalLoop=1;jettySize=auto;html=1;labelBackgroundColor=none;fontColor=#EA6B66;noEdgeStyle=1;orthogonal=1;" edge="1" parent="1" source="24" target="21"><mxGeometry relative="1" as="geometry"><Array as="points"><mxPoint x="314" y="606.25"/><mxPoint x="488" y="335"/></Array></mxGeometry></mxCell><mxCell id="NextJSLambdaEdgeExampleSiteSSRAppStackNextJSDistributionOrigin4S3OriginB6267B3F|NextJSLambdaEdgeExampleSiteSSRAppStackNextJSDistribution4DBF7638" value="OriginAccessIdentity" style="edgeStyle=orthogonalEdgeStyle;rounded=1;orthogonalLoop=1;jettySize=auto;html=1;labelBackgroundColor=none;fontColor=#EA6B66;noEdgeStyle=1;orthogonal=1;" edge="1" parent="1" source="24" target="22"><mxGeometry relative="1" as="geometry"><Array as="points"><mxPoint x="316" y="610.4166666666666"/><mxPoint x="488" y="435"/></Array></mxGeometry></mxCell><mxCell id="NextJSLambdaEdgeExampleSiteSSRAppStackNextJSDistributionOrigin5S3OriginEAEA4DB8|NextJSLambdaEdgeExampleSiteSSRAppStackNextJSDistribution4DBF7638" value="OriginAccessIdentity" style="edgeStyle=orthogonalEdgeStyle;rounded=1;orthogonalLoop=1;jettySize=auto;html=1;labelBackgroundColor=none;fontColor=#EA6B66;noEdgeStyle=1;orthogonal=1;" edge="1" parent="1" source="24" target="23"><mxGeometry relative="1" as="geometry"><Array as="points"><mxPoint x="318" y="614.5833333333333"/><mxPoint x="488" y="535"/></Array></mxGeometry></mxCell><mxCell id="NextJSLambdaEdgeExampleSiteSSRAppStackPublicAssets23D0591A|NextJSLambdaEdgeExampleSiteSSRAppStackNextJSDistribution4DBF7638" value="DomainName" style="edgeStyle=orthogonalEdgeStyle;rounded=1;orthogonalLoop=1;jettySize=auto;html=1;labelBackgroundColor=none;fontColor=#EA6B66;noEdgeStyle=1;orthogonal=1;" edge="1" parent="1" source="24" target="2"><mxGeometry relative="1" as="geometry"><Array as="points"><mxPoint x="312" y="647.9166666666663"/><mxPoint x="484" y="1463.8888888888891"/></Array></mxGeometry></mxCell><mxCell id="NextJSLambdaEdgeExampleSiteSSRAppStackPublicAssets23D0591A|NextJSLambdaEdgeExampleSiteSSRAppStackAssetDeploymentBuildIDCustomResource22B3AB09" value="DestinationBucketName" style="edgeStyle=orthogonalEdgeStyle;rounded=1;orthogonalLoop=1;jettySize=auto;html=1;labelBackgroundColor=none;fontColor=#EA6B66;noEdgeStyle=1;orthogonal=1;" edge="1" parent="1" source="26" target="2"><mxGeometry relative="1" as="geometry"><Array as="points"><mxPoint x="64" y="900"/><mxPoint x="150" y="1100"/><mxPoint x="400" y="1100"/><mxPoint x="480" y="1475.0000000000005"/></Array></mxGeometry></mxCell><mxCell id="NextJSLambdaEdgeExampleSiteSSRAppStackNextJSDistribution4DBF7638|NextJSLambdaEdgeExampleSiteSSRAppStackAssetDeploymentBuildIDCustomResource22B3AB09" value="DistributionId" style="edgeStyle=orthogonalEdgeStyle;rounded=1;orthogonalLoop=1;jettySize=auto;html=1;labelBackgroundColor=none;fontColor=#EA6B66;noEdgeStyle=1;orthogonal=1;" edge="1" parent="1" source="26" target="24"><mxGeometry relative="1" as="geometry"><Array as="points"><mxPoint x="62" y="886.6666666666666"/><mxPoint x="238" y="625"/></Array></mxGeometry></mxCell><mxCell id="CustomCDKBucketDeployment8693BB64968944B69AAFB0CC9EB8756C81C01536|NextJSLambdaEdgeExampleSiteSSRAppStackAssetDeploymentBuildIDCustomResource22B3AB09" value="ServiceToken" style="edgeStyle=orthogonalEdgeStyle;rounded=1;orthogonalLoop=1;jettySize=auto;html=1;labelBackgroundColor=none;fontColor=#EA6B66;noEdgeStyle=1;orthogonal=1;" edge="1" parent="1" source="26" target="40"><mxGeometry relative="1" as="geometry"><Array as="points"><mxPoint x="62" y="913.3333333333334"/><mxPoint x="238" y="1460"/></Array></mxGeometry></mxCell><mxCell id="NextJSLambdaEdgeExampleSiteSSRAppStackPublicAssets23D0591A|NextJSLambdaEdgeExampleSiteSSRAppStackAssetDeploymentpublicFilesCustomResource7CB41A99" value="DestinationBucketName" style="edgeStyle=orthogonalEdgeStyle;rounded=1;orthogonalLoop=1;jettySize=auto;html=1;labelBackgroundColor=none;fontColor=#EA6B66;noEdgeStyle=1;orthogonal=1;" edge="1" parent="1" source="28" target="2"><mxGeometry relative="1" as="geometry"><Array as="points"><mxPoint x="62" y="990"/><mxPoint x="150" y="1150"/><mxPoint x="400" y="1150"/><mxPoint x="482" y="1480.555555555556"/></Array></mxGeometry></mxCell><mxCell id="CustomCDKBucketDeployment8693BB64968944B69AAFB0CC9EB8756C81C01536|NextJSLambdaEdgeExampleSiteSSRAppStackAssetDeploymentpublicFilesCustomResource7CB41A99" value="ServiceToken" style="edgeStyle=orthogonalEdgeStyle;rounded=1;orthogonalLoop=1;jettySize=auto;html=1;labelBackgroundColor=none;fontColor=#EA6B66;noEdgeStyle=1;orthogonal=1;" edge="1" parent="1" source="28" target="40"><mxGeometry relative="1" as="geometry"><Array as="points"><mxPoint x="62" y="1010"/><mxPoint x="236" y="1470"/></Array></mxGeometry></mxCell><mxCell id="NextJSLambdaEdgeExampleSiteSSRAppStackPublicAssets23D0591A|NextJSLambdaEdgeExampleSiteSSRAppStackAssetDeploymentstaticPagesCustomResourceC79D31BB" value="DestinationBucketName" style="edgeStyle=orthogonalEdgeStyle;rounded=1;orthogonalLoop=1;jettySize=auto;html=1;labelBackgroundColor=none;fontColor=#EA6B66;noEdgeStyle=1;orthogonal=1;" edge="1" parent="1" source="30" target="2"><mxGeometry relative="1" as="geometry"><Array as="points"><mxPoint x="62" y="1090"/><mxPoint x="150" y="1200"/><mxPoint x="400" y="1200"/><mxPoint x="484" y="1486.1111111111118"/></Array></mxGeometry></mxCell><mxCell id="CustomCDKBucketDeployment8693BB64968944B69AAFB0CC9EB8756C81C01536|NextJSLambdaEdgeExampleSiteSSRAppStackAssetDeploymentstaticPagesCustomResourceC79D31BB" value="ServiceToken" style="edgeStyle=orthogonalEdgeStyle;rounded=1;orthogonalLoop=1;jettySize=auto;html=1;labelBackgroundColor=none;fontColor=#EA6B66;noEdgeStyle=1;orthogonal=1;" edge="1" parent="1" source="30" target="40"><mxGeometry relative="1" as="geometry"><Array as="points"><mxPoint x="62" y="1110"/><mxPoint x="236" y="1480"/></Array></mxGeometry></mxCell><mxCell id="NextJSLambdaEdgeExampleSiteSSRAppStackPublicAssets23D0591A|NextJSLambdaEdgeExampleSiteSSRAppStackAssetDeploymentnextStaticCustomResourceD6173BE6" value="DestinationBucketName" style="edgeStyle=orthogonalEdgeStyle;rounded=1;orthogonalLoop=1;jettySize=auto;html=1;labelBackgroundColor=none;fontColor=#EA6B66;noEdgeStyle=1;orthogonal=1;" edge="1" parent="1" source="32" target="2"><mxGeometry relative="1" as="geometry"><Array as="points"><mxPoint x="62" y="1522.5"/><mxPoint x="150" y="1550"/><mxPoint x="400" y="1550"/><mxPoint x="488" y="1497.222222222223"/></Array></mxGeometry></mxCell><mxCell id="CustomCDKBucketDeployment8693BB64968944B69AAFB0CC9EB8756C81C01536|NextJSLambdaEdgeExampleSiteSSRAppStackAssetDeploymentnextStaticCustomResourceD6173BE6" value="ServiceToken" style="edgeStyle=orthogonalEdgeStyle;rounded=1;orthogonalLoop=1;jettySize=auto;html=1;labelBackgroundColor=none;fontColor=#EA6B66;noEdgeStyle=1;orthogonal=1;" edge="1" parent="1" source="32" target="40"><mxGeometry relative="1" as="geometry"><Array as="points"><mxPoint x="62" y="1502.5"/><mxPoint x="238" y="1490"/></Array></mxGeometry></mxCell><mxCell id="iam  aws&#xA;policy/service-role/awslambdabasicexecutionrole|CustomS3AutoDeleteObjectsCustomResourceProviderRole3B1BD092" value="ManagedPolicyArns" style="edgeStyle=orthogonalEdgeStyle;rounded=1;orthogonalLoop=1;jettySize=auto;html=1;labelBackgroundColor=none;fontColor=#EA6B66;noEdgeStyle=1;orthogonal=1;" edge="1" parent="1" source="33" target="41"><mxGeometry relative="1" as="geometry"><Array as="points"><mxPoint x="562" y="75"/><mxPoint x="650" y="459.375"/><mxPoint x="900" y="459.375"/><mxPoint x="900" y="459.375"/><mxPoint x="1150" y="459.375"/><mxPoint x="1238" y="871.25"/></Array></mxGeometry></mxCell><mxCell id="NextJSLambdaEdgeExampleSiteSSRAppStackPublicAssets23D0591A|CustomS3AutoDeleteObjectsCustomResourceProviderHandler9D90184F" value="Description" style="edgeStyle=orthogonalEdgeStyle;rounded=1;orthogonalLoop=1;jettySize=auto;html=1;labelBackgroundColor=none;fontColor=#EA6B66;noEdgeStyle=1;orthogonal=1;" edge="1" parent="1" source="34" target="2"><mxGeometry relative="1" as="geometry"><Array as="points"><mxPoint x="312" y="335"/><mxPoint x="488" y="1452.7777777777778"/></Array></mxGeometry></mxCell><mxCell id="CustomS3AutoDeleteObjectsCustomResourceProviderRole3B1BD092|CustomS3AutoDeleteObjectsCustomResourceProviderHandler9D90184F" value="Role" style="edgeStyle=orthogonalEdgeStyle;rounded=1;orthogonalLoop=1;jettySize=auto;html=1;labelBackgroundColor=none;fontColor=#EA6B66;noEdgeStyle=1;orthogonal=1;" edge="1" parent="1" source="34" target="33"><mxGeometry relative="1" as="geometry"><Array as="points"><mxPoint x="312" y="315"/><mxPoint x="488" y="65"/></Array></mxGeometry></mxCell><mxCell id="LogRetentionaae0aa3c5b4d4f87b02d85b201efdd8aServiceRole9741ECFB|LogRetentionaae0aa3c5b4d4f87b02d85b201efdd8aServiceRoleDefaultPolicyADDA7DEB" value="Roles" style="edgeStyle=orthogonalEdgeStyle;rounded=1;orthogonalLoop=1;jettySize=auto;html=1;labelBackgroundColor=none;fontColor=#EA6B66;noEdgeStyle=1;orthogonal=1;" edge="1" parent="1" source="36" target="35"><mxGeometry relative="1" as="geometry"><Array as="points"><mxPoint x="312" y="1375"/><mxPoint x="488" y="1585"/></Array></mxGeometry></mxCell><mxCell id="LogRetentionaae0aa3c5b4d4f87b02d85b201efdd8aServiceRole9741ECFB|LogRetentionaae0aa3c5b4d4f87b02d85b201efdd8aFD4BFC8A" value="Role" style="edgeStyle=orthogonalEdgeStyle;rounded=1;orthogonalLoop=1;jettySize=auto;html=1;labelBackgroundColor=none;fontColor=#EA6B66;noEdgeStyle=1;orthogonal=1;" edge="1" parent="1" source="37" target="35"><mxGeometry relative="1" as="geometry"><Array as="points"><mxPoint x="312" y="975"/><mxPoint x="488" y="1565"/></Array></mxGeometry></mxCell><mxCell id="CustomCDKBucketDeployment8693BB64968944B69AAFB0CC9EB8756CServiceRole89A01265|CustomCDKBucketDeployment8693BB64968944B69AAFB0CC9EB8756CServiceRoleDefaultPolicy88902FDF" value="Roles" style="edgeStyle=orthogonalEdgeStyle;rounded=1;orthogonalLoop=1;jettySize=auto;html=1;labelBackgroundColor=none;fontColor=#EA6B66;noEdgeStyle=1;orthogonal=1;" edge="1" parent="1" source="39" target="38"><mxGeometry relative="1" as="geometry"><Array as="points"><mxPoint x="312" y="1285"/><mxPoint x="488" y="1665"/></Array></mxGeometry></mxCell><mxCell id="NextJSLambdaEdgeExampleSiteSSRAppStackPublicAssets23D0591A|CustomCDKBucketDeployment8693BB64968944B69AAFB0CC9EB8756CServiceRoleDefaultPolicy88902FDF" value="Resource" style="edgeStyle=orthogonalEdgeStyle;rounded=1;orthogonalLoop=1;jettySize=auto;html=1;labelBackgroundColor=none;fontColor=#EA6B66;noEdgeStyle=1;orthogonal=1;" edge="1" parent="1" source="39" target="2"><mxGeometry relative="1" as="geometry"><Array as="points"><mxPoint x="312" y="1265"/><mxPoint x="486" y="1491.6666666666674"/></Array></mxGeometry></mxCell><mxCell id="NextJSLambdaEdgeExampleSiteSSRAppStackAssetDeploymentBuildIDAwsCliLayer2A83ED32|CustomCDKBucketDeployment8693BB64968944B69AAFB0CC9EB8756C81C01536" value="Layers" style="edgeStyle=orthogonalEdgeStyle;rounded=1;orthogonalLoop=1;jettySize=auto;html=1;labelBackgroundColor=none;fontColor=#EA6B66;noEdgeStyle=1;orthogonal=1;" edge="1" parent="1" source="40" target="25"><mxGeometry relative="1" as="geometry"><Array as="points"><mxPoint x="312" y="1485"/><mxPoint x="488" y="1775"/></Array></mxGeometry></mxCell><mxCell id="CustomCDKBucketDeployment8693BB64968944B69AAFB0CC9EB8756CServiceRole89A01265|CustomCDKBucketDeployment8693BB64968944B69AAFB0CC9EB8756C81C01536" value="Role" style="edgeStyle=orthogonalEdgeStyle;rounded=1;orthogonalLoop=1;jettySize=auto;html=1;labelBackgroundColor=none;fontColor=#EA6B66;noEdgeStyle=1;orthogonal=1;" edge="1" parent="1" source="40" target="38"><mxGeometry relative="1" as="geometry"><Array as="points"><mxPoint x="312" y="1465"/><mxPoint x="488" y="1685"/></Array></mxGeometry></mxCell></root></mxGraphModel>
            </diagram>
          </mxfile>